{
    "asset" : {
        "generator" : "Khronos glTF Blender I/O v1.7.33",
        "version" : "2.0"
    },
    "scene" : 0,
    "scenes" : [
        {
            "name" : "Scene",
            "nodes" : [
                0
            ]
        }
    ],
    "nodes" : [
        {
            "mesh" : 0,
            "name" : "keyboard 1"
        }
    ],
    "materials" : [
        {
            "doubleSided" : true,
            "name" : "CompMaterial.001",
            "pbrMetallicRoughness" : {
                "baseColorFactor" : [
                    0.4440668821334839,
                    0.4575328230857849,
                    0.4575328230857849,
                    1
                ],
                "metallicFactor" : 0,
                "roughnessFactor" : 0.5
            }
        },
        {
            "doubleSided" : true,
            "name" : "CompMaterial.007",
            "pbrMetallicRoughness" : {
                "baseColorFactor" : [
                    0.800000011920929,
                    0.800000011920929,
                    0.800000011920929,
                    1
                ],
                "roughnessFactor" : 0.5527864098548889
            }
        },
        {
            "doubleSided" : true,
            "name" : "CompMaterial.006",
            "pbrMetallicRoughness" : {
                "baseColorFactor" : [
                    0.08228271454572678,
                    0.10702311247587204,
                    0.19120174646377563,
                    1
                ],
                "metallicFactor" : 0,
                "roughnessFactor" : 0.690034806728363
            }
        },
        {
            "doubleSided" : true,
            "name" : "CompMaterial.002",
            "pbrMetallicRoughness" : {
                "baseColorFactor" : [
                    0.8000000715255737,
                    0.24090805649757385,
                    0.4416394829750061,
                    1
                ],
                "metallicFactor" : 0,
                "roughnessFactor" : 0.690034806728363
            }
        },
        {
            "doubleSided" : true,
            "name" : "CompMaterial.004",
            "pbrMetallicRoughness" : {
                "baseColorFactor" : [
                    0.41773736476898193,
                    0.4282318949699402,
                    0.8000000715255737,
                    1
                ],
                "metallicFactor" : 0,
                "roughnessFactor" : 0.690034806728363
            }
        },
        {
            "doubleSided" : true,
            "name" : "CompMaterial.009",
            "pbrMetallicRoughness" : {
                "baseColorFactor" : [
                    0.800000011920929,
                    0.800000011920929,
                    0.800000011920929,
                    1
                ],
                "roughnessFactor" : 0.5527864098548889
            }
        }
    ],
    "meshes" : [
        {
            "name" : "Cube.006",
            "primitives" : [
                {
                    "attributes" : {
                        "POSITION" : 0,
                        "NORMAL" : 1
                    },
                    "indices" : 2,
                    "material" : 0
                },
                {
                    "attributes" : {
                        "POSITION" : 3,
                        "NORMAL" : 4
                    },
                    "indices" : 5,
                    "material" : 1
                },
                {
                    "attributes" : {
                        "POSITION" : 6,
                        "NORMAL" : 7
                    },
                    "indices" : 8,
                    "material" : 2
                },
                {
                    "attributes" : {
                        "POSITION" : 9,
                        "NORMAL" : 10
                    },
                    "indices" : 11,
                    "material" : 3
                },
                {
                    "attributes" : {
                        "POSITION" : 12,
                        "NORMAL" : 13
                    },
                    "indices" : 14,
                    "material" : 4
                },
                {
                    "attributes" : {
                        "POSITION" : 15,
                        "NORMAL" : 16
                    },
                    "indices" : 17,
                    "material" : 5
                }
            ]
        }
    ],
    "accessors" : [
        {
            "bufferView" : 0,
            "componentType" : 5126,
            "count" : 491,
            "max" : [
                1.4305697679519653,
                5.440164566040039,
                2.4245870113372803
            ],
            "min" : [
                -1.9950180053710938,
                0.03592371940612793,
                -2.461858034133911
            ],
            "type" : "VEC3"
        },
        {
            "bufferView" : 1,
            "componentType" : 5126,
            "count" : 491,
            "type" : "VEC3"
        },
        {
            "bufferView" : 2,
            "componentType" : 5123,
            "count" : 990,
            "type" : "SCALAR"
        },
        {
            "bufferView" : 3,
            "componentType" : 5126,
            "count" : 92,
            "max" : [
                1.3596080541610718,
                5.219280242919922,
                0.05448000878095627
            ],
            "min" : [
                -1.3758621215820312,
                0.7288623452186584,
                -2.0410351753234863
            ],
            "type" : "VEC3"
        },
        {
            "bufferView" : 4,
            "componentType" : 5126,
            "count" : 92,
            "type" : "VEC3"
        },
        {
            "bufferView" : 5,
            "componentType" : 5123,
            "count" : 222,
            "type" : "SCALAR"
        },
        {
            "bufferView" : 6,
            "componentType" : 5126,
            "count" : 396,
            "max" : [
                1.4636669158935547,
                5.388916969299316,
                2.0060834884643555
            ],
            "min" : [
                -1.455832839012146,
                0.3326529562473297,
                -2.171647071838379
            ],
            "type" : "VEC3"
        },
        {
            "bufferView" : 7,
            "componentType" : 5126,
            "count" : 396,
            "type" : "VEC3"
        },
        {
            "bufferView" : 8,
            "componentType" : 5123,
            "count" : 720,
            "type" : "SCALAR"
        },
        {
            "bufferView" : 9,
            "componentType" : 5126,
            "count" : 84,
            "max" : [
                1.4433717727661133,
                1.170746088027954,
                0.16792146861553192
            ],
            "min" : [
                0.8944880366325378,
                0.6961835622787476,
                -0.10267679393291473
            ],
            "type" : "VEC3"
        },
        {
            "bufferView" : 10,
            "componentType" : 5126,
            "count" : 84,
            "type" : "VEC3"
        },
        {
            "bufferView" : 11,
            "componentType" : 5123,
            "count" : 144,
            "type" : "SCALAR"
        },
        {
            "bufferView" : 12,
            "componentType" : 5126,
            "count" : 108,
            "max" : [
                1.0479274988174438,
                3.589459180831909,
                0.4432304799556732
            ],
            "min" : [
                -1.0303218364715576,
                0.9250215291976929,
                -0.0519893616437912
            ],
            "type" : "VEC3"
        },
        {
            "bufferView" : 13,
            "componentType" : 5126,
            "count" : 108,
            "type" : "VEC3"
        },
        {
            "bufferView" : 14,
            "componentType" : 5123,
            "count" : 180,
            "type" : "SCALAR"
        },
        {
            "bufferView" : 15,
            "componentType" : 5126,
            "count" : 48,
            "max" : [
                -0.08190008997917175,
                3.630638837814331,
                0.12081600725650787
            ],
            "min" : [
                -0.4592672288417816,
                3.5048739910125732,
                -0.022603297606110573
            ],
            "type" : "VEC3"
        },
        {
            "bufferView" : 16,
            "componentType" : 5126,
            "count" : 48,
            "type" : "VEC3"
        },
        {
            "bufferView" : 17,
            "componentType" : 5123,
            "count" : 84,
            "type" : "SCALAR"
        }
    ],
    "bufferViews" : [
        {
            "buffer" : 0,
            "byteLength" : 5892,
            "byteOffset" : 0
        },
        {
            "buffer" : 0,
            "byteLength" : 5892,
            "byteOffset" : 5892
        },
        {
            "buffer" : 0,
            "byteLength" : 1980,
            "byteOffset" : 11784
        },
        {
            "buffer" : 0,
            "byteLength" : 1104,
            "byteOffset" : 13764
        },
        {
            "buffer" : 0,
            "byteLength" : 1104,
            "byteOffset" : 14868
        },
        {
            "buffer" : 0,
            "byteLength" : 444,
            "byteOffset" : 15972
        },
        {
            "buffer" : 0,
            "byteLength" : 4752,
            "byteOffset" : 16416
        },
        {
            "buffer" : 0,
            "byteLength" : 4752,
            "byteOffset" : 21168
        },
        {
            "buffer" : 0,
            "byteLength" : 1440,
            "byteOffset" : 25920
        },
        {
            "buffer" : 0,
            "byteLength" : 1008,
            "byteOffset" : 27360
        },
        {
            "buffer" : 0,
            "byteLength" : 1008,
            "byteOffset" : 28368
        },
        {
            "buffer" : 0,
            "byteLength" : 288,
            "byteOffset" : 29376
        },
        {
            "buffer" : 0,
            "byteLength" : 1296,
            "byteOffset" : 29664
        },
        {
            "buffer" : 0,
            "byteLength" : 1296,
            "byteOffset" : 30960
        },
        {
            "buffer" : 0,
            "byteLength" : 360,
            "byteOffset" : 32256
        },
        {
            "buffer" : 0,
            "byteLength" : 576,
            "byteOffset" : 32616
        },
        {
            "buffer" : 0,
            "byteLength" : 576,
            "byteOffset" : 33192
        },
        {
            "buffer" : 0,
            "byteLength" : 168,
            "byteOffset" : 33768
        }
    ],
    "buffers" : [
        {
            "byteLength" : 33936,
            "uri" : "Computer.bin"
        }
    ]
}
