{
    "asset" : {
        "generator" : "Khronos glTF Blender I/O v1.7.33",
        "version" : "2.0"
    },
    "scene" : 0,
    "scenes" : [
        {
            "name" : "Scene",
            "nodes" : [
                0
            ]
        }
    ],
    "nodes" : [
        {
            "mesh" : 0,
            "name" : "fridge.017"
        }
    ],
    "materials" : [
        {
            "doubleSided" : true,
            "name" : "Refrigerator",
            "pbrMetallicRoughness" : {}
        }
    ],
    "meshes" : [
        {
            "name" : "Cube.035",
            "primitives" : [
                {
                    "attributes" : {
                        "POSITION" : 0,
                        "NORMAL" : 1,
                        "TEXCOORD_0" : 2
                    },
                    "indices" : 3,
                    "material" : 0
                }
            ]
        }
    ],
    "accessors" : [
        {
            "bufferView" : 0,
            "componentType" : 5126,
            "count" : 1416,
            "max" : [
                0.6074727773666382,
                3.0532174110412598,
                0.5437912344932556
            ],
            "min" : [
                -0.6071277856826782,
                0.007650613784790039,
                -0.4394703805446625
            ],
            "type" : "VEC3"
        },
        {
            "bufferView" : 1,
            "componentType" : 5126,
            "count" : 1416,
            "type" : "VEC3"
        },
        {
            "bufferView" : 2,
            "componentType" : 5126,
            "count" : 1416,
            "type" : "VEC2"
        },
        {
            "bufferView" : 3,
            "componentType" : 5123,
            "count" : 3816,
            "type" : "SCALAR"
        }
    ],
    "bufferViews" : [
        {
            "buffer" : 0,
            "byteLength" : 16992,
            "byteOffset" : 0
        },
        {
            "buffer" : 0,
            "byteLength" : 16992,
            "byteOffset" : 16992
        },
        {
            "buffer" : 0,
            "byteLength" : 11328,
            "byteOffset" : 33984
        },
        {
            "buffer" : 0,
            "byteLength" : 7632,
            "byteOffset" : 45312
        }
    ],
    "buffers" : [
        {
            "byteLength" : 52944,
            "uri" : "Frigde.bin"
        }
    ]
}
