{
    "asset" : {
        "generator" : "Khronos glTF Blender I/O v1.7.33",
        "version" : "2.0"
    },
    "scene" : 0,
    "scenes" : [
        {
            "name" : "Scene",
            "nodes" : [
                0
            ]
        }
    ],
    "nodes" : [
        {
            "mesh" : 0,
            "name" : "OfficeChair"
        }
    ],
    "materials" : [
        {
            "doubleSided" : true,
            "name" : "OfficeChairMesh",
            "pbrMetallicRoughness" : {
                "baseColorTexture" : {
                    "index" : 0
                },
                "metallicFactor" : 0,
                "roughnessFactor" : 0.5
            }
        }
    ],
    "meshes" : [
        {
            "name" : "MeshVerts",
            "primitives" : [
                {
                    "attributes" : {
                        "POSITION" : 0,
                        "NORMAL" : 1,
                        "TEXCOORD_0" : 2,
                        "TEXCOORD_1" : 3,
                        "TEXCOORD_2" : 4,
                        "TEXCOORD_3" : 5,
                        "TEXCOORD_4" : 6,
                        "TEXCOORD_5" : 7,
                        "TEXCOORD_6" : 8
                    },
                    "indices" : 9,
                    "material" : 0
                }
            ]
        }
    ],
    "textures" : [
        {
            "sampler" : 0,
            "source" : 0
        }
    ],
    "images" : [
        {
            "mimeType" : "image/jpeg",
            "name" : "lambert1_albedo",
            "uri" : "Textures/lambert1_albedo.jpg"
        }
    ],
    "accessors" : [
        {
            "bufferView" : 0,
            "componentType" : 5126,
            "count" : 1071,
            "max" : [
                0.6969789862632751,
                2.0010035037994385,
                0.7328469157218933
            ],
            "min" : [
                -0.6969789862632751,
                0.0010035037994384766,
                -0.7328470349311829
            ],
            "type" : "VEC3"
        },
        {
            "bufferView" : 1,
            "componentType" : 5126,
            "count" : 1071,
            "type" : "VEC3"
        },
        {
            "bufferView" : 2,
            "componentType" : 5126,
            "count" : 1071,
            "type" : "VEC2"
        },
        {
            "bufferView" : 3,
            "componentType" : 5126,
            "count" : 1071,
            "type" : "VEC2"
        },
        {
            "bufferView" : 4,
            "componentType" : 5126,
            "count" : 1071,
            "type" : "VEC2"
        },
        {
            "bufferView" : 5,
            "componentType" : 5126,
            "count" : 1071,
            "type" : "VEC2"
        },
        {
            "bufferView" : 6,
            "componentType" : 5126,
            "count" : 1071,
            "type" : "VEC2"
        },
        {
            "bufferView" : 7,
            "componentType" : 5126,
            "count" : 1071,
            "type" : "VEC2"
        },
        {
            "bufferView" : 8,
            "componentType" : 5126,
            "count" : 1071,
            "type" : "VEC2"
        },
        {
            "bufferView" : 9,
            "componentType" : 5123,
            "count" : 2142,
            "type" : "SCALAR"
        }
    ],
    "bufferViews" : [
        {
            "buffer" : 0,
            "byteLength" : 12852,
            "byteOffset" : 0
        },
        {
            "buffer" : 0,
            "byteLength" : 12852,
            "byteOffset" : 12852
        },
        {
            "buffer" : 0,
            "byteLength" : 8568,
            "byteOffset" : 25704
        },
        {
            "buffer" : 0,
            "byteLength" : 8568,
            "byteOffset" : 34272
        },
        {
            "buffer" : 0,
            "byteLength" : 8568,
            "byteOffset" : 42840
        },
        {
            "buffer" : 0,
            "byteLength" : 8568,
            "byteOffset" : 51408
        },
        {
            "buffer" : 0,
            "byteLength" : 8568,
            "byteOffset" : 59976
        },
        {
            "buffer" : 0,
            "byteLength" : 8568,
            "byteOffset" : 68544
        },
        {
            "buffer" : 0,
            "byteLength" : 8568,
            "byteOffset" : 77112
        },
        {
            "buffer" : 0,
            "byteLength" : 4284,
            "byteOffset" : 85680
        }
    ],
    "samplers" : [
        {
            "magFilter" : 9729,
            "minFilter" : 9987
        }
    ],
    "buffers" : [
        {
            "byteLength" : 89964,
            "uri" : "OfficeChair.bin"
        }
    ]
}
