{
    "asset" : {
        "generator" : "Khronos glTF Blender I/O v1.7.33",
        "version" : "2.0"
    },
    "scene" : 0,
    "scenes" : [
        {
            "name" : "Scene",
            "nodes" : [
                0
            ]
        }
    ],
    "nodes" : [
        {
            "mesh" : 0,
            "name" : "desk4"
        }
    ],
    "materials" : [
        {
            "doubleSided" : true,
            "name" : "BlackWood",
            "pbrMetallicRoughness" : {
                "baseColorFactor" : [
                    0.2345505952835083,
                    0.1119324117898941,
                    0.05448029190301895,
                    1
                ],
                "metallicFactor" : 0
            }
        }
    ],
    "meshes" : [
        {
            "name" : "Cube.004",
            "primitives" : [
                {
                    "attributes" : {
                        "POSITION" : 0,
                        "NORMAL" : 1,
                        "TEXCOORD_0" : 2
                    },
                    "indices" : 3,
                    "material" : 0
                }
            ]
        }
    ],
    "accessors" : [
        {
            "bufferView" : 0,
            "componentType" : 5126,
            "count" : 173,
            "max" : [
                0.5715994834899902,
                0.7639951705932617,
                0.22789955139160156
            ],
            "min" : [
                -0.5284005403518677,
                0.003995060920715332,
                -0.3221004009246826
            ],
            "type" : "VEC3"
        },
        {
            "bufferView" : 1,
            "componentType" : 5126,
            "count" : 173,
            "type" : "VEC3"
        },
        {
            "bufferView" : 2,
            "componentType" : 5126,
            "count" : 173,
            "type" : "VEC2"
        },
        {
            "bufferView" : 3,
            "componentType" : 5123,
            "count" : 282,
            "type" : "SCALAR"
        }
    ],
    "bufferViews" : [
        {
            "buffer" : 0,
            "byteLength" : 2076,
            "byteOffset" : 0
        },
        {
            "buffer" : 0,
            "byteLength" : 2076,
            "byteOffset" : 2076
        },
        {
            "buffer" : 0,
            "byteLength" : 1384,
            "byteOffset" : 4152
        },
        {
            "buffer" : 0,
            "byteLength" : 564,
            "byteOffset" : 5536
        }
    ],
    "buffers" : [
        {
            "byteLength" : 6100,
            "uri" : "OfficeDesk.bin"
        }
    ]
}
